<svg aria-hidden="true" style="position: absolute; width: 0; height: 0; overflow: hidden;" version="1.1" xmlns="http://www.w3.org/2000/svg" xmlns:xlink="http://www.w3.org/1999/xlink">
<defs>
<symbol id="icon-email" viewBox="0 0 32 32">
<title>email</title>
<path d="M29 4h-26c-1.657 0-3 1.343-3 3v18c0 1.656 1.343 3 3 3h26c1.657 0 3-1.344 3-3v-18c0-1.657-1.343-3-3-3zM2.741 25.99l-0.731-0.732 8.249-8.248 0.731 0.732-8.249 8.248zM29.259 25.99l-8.249-8.248 0.731-0.732 8.249 8.248-0.731 0.732zM17 19.325v0.675h-2v-0.675l-12.997-12.050 1.272-1.272 12.725 11.798 12.725-11.798 1.272 1.272-12.997 12.050z"></path>
</symbol>
<symbol id="icon-facebook" viewBox="0 0 32 32">
<title>facebook</title>
<path d="M19 6h5v-6h-5c-3.86 0-7 3.14-7 7v3h-4v6h4v16h6v-16h5l1-6h-6v-3c0-0.542 0.458-1 1-1z"></path>
</symbol>
<symbol id="icon-instagram" viewBox="0 0 32 32">
<title>instagram</title>
<path d="M16 2.881c4.275 0 4.781 0.019 6.462 0.094 1.563 0.069 2.406 0.331 2.969 0.55 0.744 0.288 1.281 0.638 1.837 1.194 0.563 0.563 0.906 1.094 1.2 1.838 0.219 0.563 0.481 1.412 0.55 2.969 0.075 1.688 0.094 2.194 0.094 6.463s-0.019 4.781-0.094 6.463c-0.069 1.563-0.331 2.406-0.55 2.969-0.288 0.744-0.637 1.281-1.194 1.837-0.563 0.563-1.094 0.906-1.837 1.2-0.563 0.219-1.413 0.481-2.969 0.55-1.688 0.075-2.194 0.094-6.463 0.094s-4.781-0.019-6.463-0.094c-1.563-0.069-2.406-0.331-2.969-0.55-0.744-0.288-1.281-0.637-1.838-1.194-0.563-0.563-0.906-1.094-1.2-1.837-0.219-0.563-0.481-1.413-0.55-2.969-0.075-1.688-0.094-2.194-0.094-6.463s0.019-4.781 0.094-6.463c0.069-1.563 0.331-2.406 0.55-2.969 0.288-0.744 0.638-1.281 1.194-1.838 0.563-0.563 1.094-0.906 1.838-1.2 0.563-0.219 1.412-0.481 2.969-0.55 1.681-0.075 2.188-0.094 6.463-0.094zM16 0c-4.344 0-4.887 0.019-6.594 0.094-1.7 0.075-2.869 0.35-3.881 0.744-1.056 0.412-1.95 0.956-2.837 1.85-0.894 0.888-1.438 1.781-1.85 2.831-0.394 1.019-0.669 2.181-0.744 3.881-0.075 1.713-0.094 2.256-0.094 6.6s0.019 4.887 0.094 6.594c0.075 1.7 0.35 2.869 0.744 3.881 0.413 1.056 0.956 1.95 1.85 2.837 0.887 0.887 1.781 1.438 2.831 1.844 1.019 0.394 2.181 0.669 3.881 0.744 1.706 0.075 2.25 0.094 6.594 0.094s4.888-0.019 6.594-0.094c1.7-0.075 2.869-0.35 3.881-0.744 1.050-0.406 1.944-0.956 2.831-1.844s1.438-1.781 1.844-2.831c0.394-1.019 0.669-2.181 0.744-3.881 0.075-1.706 0.094-2.25 0.094-6.594s-0.019-4.887-0.094-6.594c-0.075-1.7-0.35-2.869-0.744-3.881-0.394-1.063-0.938-1.956-1.831-2.844-0.887-0.887-1.781-1.438-2.831-1.844-1.019-0.394-2.181-0.669-3.881-0.744-1.712-0.081-2.256-0.1-6.6-0.1v0z"></path>
<path d="M16 7.781c-4.537 0-8.219 3.681-8.219 8.219s3.681 8.219 8.219 8.219 8.219-3.681 8.219-8.219c0-4.537-3.681-8.219-8.219-8.219zM16 21.331c-2.944 0-5.331-2.387-5.331-5.331s2.387-5.331 5.331-5.331c2.944 0 5.331 2.387 5.331 5.331s-2.387 5.331-5.331 5.331z"></path>
<path d="M26.462 7.456c0 1.060-0.859 1.919-1.919 1.919s-1.919-0.859-1.919-1.919c0-1.060 0.859-1.919 1.919-1.919s1.919 0.859 1.919 1.919z"></path>
</symbol>
<symbol id="icon-twitter" viewBox="0 0 32 32">
<title>twitter</title>
<path d="M32 7.075c-1.175 0.525-2.444 0.875-3.769 1.031 1.356-0.813 2.394-2.1 2.887-3.631-1.269 0.75-2.675 1.3-4.169 1.594-1.2-1.275-2.906-2.069-4.794-2.069-3.625 0-6.563 2.938-6.563 6.563 0 0.512 0.056 1.012 0.169 1.494-5.456-0.275-10.294-2.888-13.531-6.862-0.563 0.969-0.887 2.1-0.887 3.3 0 2.275 1.156 4.287 2.919 5.463-1.075-0.031-2.087-0.331-2.975-0.819 0 0.025 0 0.056 0 0.081 0 3.181 2.263 5.838 5.269 6.437-0.55 0.15-1.131 0.231-1.731 0.231-0.425 0-0.831-0.044-1.237-0.119 0.838 2.606 3.263 4.506 6.131 4.563-2.25 1.762-5.075 2.813-8.156 2.813-0.531 0-1.050-0.031-1.569-0.094 2.913 1.869 6.362 2.95 10.069 2.95 12.075 0 18.681-10.006 18.681-18.681 0-0.287-0.006-0.569-0.019-0.85 1.281-0.919 2.394-2.075 3.275-3.394z"></path>
</symbol>
<symbol id="icon-phone" viewBox="0 0 22 28">
<title>phone</title>
<path d="M22 19.375c0 0.562-0.25 1.656-0.484 2.172-0.328 0.766-1.203 1.266-1.906 1.656-0.922 0.5-1.859 0.797-2.906 0.797-1.453 0-2.766-0.594-4.094-1.078-0.953-0.344-1.875-0.766-2.734-1.297-2.656-1.641-5.859-4.844-7.5-7.5-0.531-0.859-0.953-1.781-1.297-2.734-0.484-1.328-1.078-2.641-1.078-4.094 0-1.047 0.297-1.984 0.797-2.906 0.391-0.703 0.891-1.578 1.656-1.906 0.516-0.234 1.609-0.484 2.172-0.484 0.109 0 0.219 0 0.328 0.047 0.328 0.109 0.672 0.875 0.828 1.188 0.5 0.891 0.984 1.797 1.5 2.672 0.25 0.406 0.719 0.906 0.719 1.391 0 0.953-2.828 2.344-2.828 3.187 0 0.422 0.391 0.969 0.609 1.344 1.578 2.844 3.547 4.813 6.391 6.391 0.375 0.219 0.922 0.609 1.344 0.609 0.844 0 2.234-2.828 3.187-2.828 0.484 0 0.984 0.469 1.391 0.719 0.875 0.516 1.781 1 2.672 1.5 0.313 0.156 1.078 0.5 1.188 0.828 0.047 0.109 0.047 0.219 0.047 0.328z"></path>
</symbol>
<symbol id="icon-car" viewBox="0 0 24 24">
<title>car</title>
<path d="M5.016 11.016h13.969l-1.5-4.5h-10.969zM17.484 15.984q0.609 0 1.055-0.445t0.445-1.055-0.445-1.055-1.055-0.445-1.055 0.445-0.445 1.055 0.445 1.055 1.055 0.445zM6.516 15.984q0.609 0 1.055-0.445t0.445-1.055-0.445-1.055-1.055-0.445-1.055 0.445-0.445 1.055 0.445 1.055 1.055 0.445zM18.938 6l2.063 6v8.016q0 0.422-0.281 0.703t-0.703 0.281h-1.031q-0.422 0-0.703-0.281t-0.281-0.703v-1.031h-12v1.031q0 0.422-0.281 0.703t-0.703 0.281h-1.031q-0.422 0-0.703-0.281t-0.281-0.703v-8.016l2.063-6q0.281-0.984 1.453-0.984h10.969q1.172 0 1.453 0.984z"></path>
</symbol>

<symbol id="icon-gas-station" viewBox="0 0 384 384">
<title>gas-station</title>
<g>
	<g>
		<path d="M352.427,90.24l0.32-0.32L273.28,10.667L250.667,33.28l45.013,45.013c-20.053,7.68-34.347,26.987-34.347,49.707
			c0,29.44,23.893,53.333,53.333,53.333c7.573,0,14.827-1.6,21.333-4.48v153.813C336,342.4,326.4,352,314.667,352
			c-11.733,0-21.333-9.6-21.333-21.333v-96c0-23.573-19.093-42.667-42.667-42.667h-21.333V42.667C229.333,19.093,210.24,0,186.667,0
			h-128C35.093,0,16,19.093,16,42.667V384h213.333V224h32v106.667c0,29.44,23.893,53.333,53.333,53.333
			c29.44,0,53.333-23.893,53.333-53.333V128C368,113.28,362.027,99.947,352.427,90.24z M186.667,149.333h-128V42.667h128V149.333z
			 M314.667,149.333c-11.733,0-21.333-9.6-21.333-21.333s9.6-21.333,21.333-21.333c11.733,0,21.333,9.6,21.333,21.333
			S326.4,149.333,314.667,149.333z"/>
	</g>
</g>
</symbol>

<symbol id="icon-road" viewBox="0 0 455.416 455.416">
<title>road</title>
<g>
	<g>
		<path d="M235.968,52.552c0.39,9.688,0.778,19.376,1.169,29.064c-7.543,0-11.313,0-18.855,0c0.389-9.688,0.779-19.376,1.167-29.064
			c-15.295,0-30.589,0-45.884,0c-30.747,116.771-61.499,233.539-92.245,350.312c41.352,0,82.704,0,124.055,0
			c0.389-9.689,0.778-19.377,1.168-29.064c14.111,0,28.222,0,42.332,0c0.392,9.688,0.78,19.375,1.168,29.064
			c41.352,0,82.703,0,124.055,0c-30.747-116.771-61.498-233.54-92.245-350.312C266.559,52.552,251.264,52.552,235.968,52.552z
			 M216.531,125.133c7.451,0,14.902-0.004,22.354-0.002c1.082,26.939,2.163,53.88,3.247,80.818c-9.616,0-19.231,0-28.848,0
			C214.37,179.012,215.45,152.072,216.531,125.133z M208.29,330.282c1.081-26.938,2.165-53.877,3.247-80.815
			c10.781,0,21.562-0.002,32.342-0.002c1.083,26.938,2.166,53.879,3.247,80.817C234.182,330.282,221.235,330.282,208.29,330.282z"/>
		<path d="M311.929,52.552c-6.248,0-9.373,0-15.621,0c38.961,116.771,77.913,233.541,116.876,350.312c14.077,0,28.155,0,42.232,0
			C407.589,286.091,359.759,169.323,311.929,52.552z"/>
		<path d="M143.487,52.552C95.657,169.324,47.826,286.091,0,402.864c14.078,0,28.155,0,42.233,0
			c38.958-116.771,77.915-233.54,116.875-350.312C152.86,52.552,149.735,52.552,143.487,52.552z"/>
	</g>
</g>
</symbol>

<symbol id="icon-gear" viewBox="0 0 512 512">
<title>gear</title>
<g>
	<g>
		<path d="M405.333,213.333H288V164.32c31.217-12.694,53.333-43.255,53.333-78.987C341.333,38.271,303.052,0,256,0
			s-85.333,38.271-85.333,85.333c0,35.732,22.116,66.293,53.333,78.987v166.346c0,17.646,14.354,32,32,32s32-14.354,32-32V320
			h42.667c5.896,0,10.667-4.771,10.667-10.667v-32c0-11.771,9.573-21.333,21.333-21.333S384,265.563,384,277.333V448
			c0,11.771-9.573,21.333-21.333,21.333s-21.333-9.563-21.333-21.333v-53.333c0-5.896-4.771-10.667-10.667-10.667H288
			c-5.896,0-10.667,4.771-10.667,10.667V448c0,11.771-9.573,21.333-21.333,21.333s-21.333-9.563-21.333-21.333v-53.333
			c0-5.896-4.771-10.667-10.667-10.667h-42.667c-5.896,0-10.667,4.771-10.667,10.667V448c0,11.771-9.573,21.333-21.333,21.333
			c-11.76,0-21.333-9.563-21.333-21.333V277.333c0-11.771,9.573-21.333,21.333-21.333c11.76,0,21.333,9.563,21.333,21.333v32
			c0,5.896,4.771,10.667,10.667,10.667H192c5.896,0,10.667-4.771,10.667-10.667V224c0-5.896-4.771-10.667-10.667-10.667h-85.333
			C83.135,213.333,64,232.479,64,256v213.333C64,492.854,83.135,512,106.667,512h298.667C428.865,512,448,492.854,448,469.333V256
			C448,232.479,428.865,213.333,405.333,213.333z M229.333,64c-8.823,0-16-7.188-16-16s7.177-16,16-16c8.823,0,16,7.188,16,16
			S238.156,64,229.333,64z"/>
	</g>
</g>
</symbol>


</defs>
</svg>
